<?xml version="1.0" standalone="no"?>
<!DOCTYPE svg PUBLIC "-//W3C//DTD SVG 20010904//EN"
 "http://www.w3.org/TR/2001/REC-SVG-20010904/DTD/svg10.dtd">
<svg version="1.0" xmlns="http://www.w3.org/2000/svg"
 width="586.000000pt" height="582.000000pt" viewBox="0 0 586.000000 582.000000"
 preserveAspectRatio="xMidYMid meet">

<g transform="translate(0.000000,582.000000) scale(0.100000,-0.100000)"
fill="#000000" stroke="none">
<path d="M1880 3255 l0 -985 205 0 205 0 2 677 3 677 235 -674 236 -675 170
-3 171 -2 239 692 239 692 3 -692 2 -692 205 0 205 0 0 985 0 985 -308 0 -308
0 -213 -662 c-117 -365 -216 -666 -219 -670 -4 -4 -109 293 -233 660 l-227
667 -306 3 -306 2 0 -985z"/>
</g>
</svg>
